<svg width="392" height="400" viewBox="0 0 392 400" fill="none" xmlns="http://www.w3.org/2000/svg">
<rect width="392" height="399.781" rx="196" fill="black"/>
<path d="M195.999 105.781C262.169 105.781 316 159.612 316 225.779C316 291.949 262.169 345.781 195.999 345.781C129.832 345.781 76 291.949 76 225.779C76.0002 159.612 129.832 105.781 195.999 105.781ZM196 131.671C144.108 131.671 101.887 173.888 101.887 225.779C101.887 277.266 143.449 319.231 194.784 319.884L196 319.891C247.893 319.89 290.114 277.672 290.114 225.779C290.114 173.888 247.893 131.671 196 131.671ZM193.222 193.28C201.575 193.28 208.348 203.438 208.348 215.969C208.347 228.499 201.575 238.656 193.222 238.656C184.868 238.656 178.097 228.499 178.097 215.969C178.097 203.439 184.868 193.281 193.222 193.28ZM248.997 193.28C257.351 193.28 264.123 203.438 264.123 215.969C264.123 228.499 257.351 238.656 248.997 238.656C240.644 238.656 233.872 228.499 233.872 215.969C233.872 203.438 240.644 193.28 248.997 193.28ZM255.974 79.8906H135.976V54H255.974V79.8906Z" fill="white"/>
</svg>
