<svg width="220" height="268" viewBox="0 0 220 268" fill="none" xmlns="http://www.w3.org/2000/svg">
<path d="M109.999 47.4658C170.655 47.466 220 96.8117 220 157.465C220 218.121 170.655 267.466 109.999 267.466C49.3458 267.466 0.000107901 218.121 0 157.465C0 96.8116 49.3458 47.4658 109.999 47.4658ZM110 71.1982C62.4318 71.1982 23.7295 109.898 23.7295 157.465C23.7296 204.661 61.8284 243.129 108.886 243.727L110 243.733C157.569 243.733 196.271 205.033 196.271 157.465C196.271 109.898 157.569 71.1985 110 71.1982ZM107.453 127.674C115.11 127.674 121.318 136.985 121.318 148.471C121.318 159.957 115.111 169.269 107.453 169.269C99.7959 169.268 93.5889 159.957 93.5889 148.471C93.589 136.985 99.796 127.674 107.453 127.674ZM158.581 127.674C166.238 127.674 172.445 136.985 172.445 148.471C172.445 159.957 166.238 169.268 158.581 169.269C150.924 169.269 144.716 159.957 144.716 148.471C144.716 136.985 150.924 127.674 158.581 127.674ZM164.976 23.7334H54.9775V0H164.976V23.7334Z" fill="white"/>
</svg>
